<?xml version="1.0" encoding="UTF-8"?><svg id="Ebene_1" xmlns="http://www.w3.org/2000/svg" viewBox="0 0 133 137.18"><defs><style>.cls-1{fill:#fff;}.cls-2{fill:#822fa2;}.cls-3{fill:#a32391;}.cls-4{fill:#862d9f;}.cls-5{fill:#8d2a9c;}.cls-6{fill:#942899;}.cls-7{fill:#d1137b;}.cls-8{fill:#b51c89;}.cls-9{fill:#c31882;}.cls-10{fill:#aa208e;}.cls-11{fill:#9d2594;}.cls-12{fill:#8b2c9e;}.cls-13{fill:#5c40b4;}.cls-14{fill:#5946b6;}.cls-15{fill:#5054b8;}.cls-16{fill:#7c32a6;}</style></defs><path id="Pfad_66" class="cls-1" d="M44.5,119.69l-8.64,17.28h26.25l-8.43-17.28h-9.18ZM0,137.18H19.28l21.51-42.55-10-20.71L0,137.18ZM39.39,55.48l40,81.49h19.28L49.4,34.77l-10.01,20.71ZM66.39,0l-8.94,18.39,57.24,118.76h18.31L66.39,0Z"/><g><path class="cls-1" d="M43.35,136.73c1.93,.06,3.87,.03,5.8,0,2.03,.05,4.06,.02,6.09,0,.82,0,1.65,.02,2.47,.01,.83,0,1.66,.02,2.48-.02,0-.33-.14-.5-.23-.68-.49-.99-.99-1.98-1.48-2.96-2.13-4.24-4.26-8.48-6.38-12.73-.18-.36-.35-.68-.84-.52-2.6-.08-5.21-.01-7.81-.04-.23,0-.4,.05-.51,.28-.51,1.13-1.13,2.21-1.58,3.37-.33,.46-.53,.99-.77,1.49-.59,1.25-1.25,2.46-1.77,3.74-.04,.05-.1,.1-.13,.16-1.24,2.54-2.47,5.08-3.71,7.63-.05,.1-.13,.2,0,.38,.19,0,.43,0,.66,0,1.96,0,3.91-.01,5.87-.03,.61,0,1.22-.04,1.84-.07Zm-17.27-52.64c-.63,1.1-1.19,2.24-1.68,3.41-.71,1.34-1.4,2.7-2,4.1-.69,1.23-1.3,2.5-1.85,3.8-.39,.56-.64,1.2-.93,1.81-.59,1.23-1.26,2.42-1.76,3.69-.76,1.4-1.47,2.82-2.1,4.29-.38,.57-.63,1.2-.93,1.81-.55,1.14-1.17,2.24-1.65,3.41-.44,.64-.69,1.37-1.03,2.05-.79,1.62-1.58,3.25-2.37,4.88-.15,.12-.2,.31-.27,.47-.69,1.43-1.39,2.85-2.07,4.29-.57,1.2-1.22,2.37-1.72,3.61-.04,.06-.1,.11-.13,.17-1.73,3.52-3.45,7.05-5.17,10.57-.08,.16-.21,.31-.18,.52,.22,.1,.46,.04,.69,.04,3.29-.01,6.59-.03,9.88-.06,.47,0,.94,.09,1.41-.02,1.52,.1,3.04,.1,4.57,.03,1.57-.06,2.75-.82,3.63-2.08,.35-.33,.57-.74,.78-1.16,.97-1.9,1.85-3.84,2.75-5.77,.11-.21,.23-.4,.33-.62,.67-1.5,1.34-2.99,2.12-4.44,.74-1.34,1.4-2.72,2.02-4.12,.29-.56,.59-1.11,.85-1.68,.59-1.24,1.26-2.44,1.77-3.72,.7-1.23,1.3-2.51,1.87-3.81,.79-1.35,1.33-2.81,1.97-4.23,.79-1,1.23-2.18,1.74-3.33,.68-1.17,1.26-2.39,1.8-3.63,.94-1.64,.96-3.3,.12-4.98-2.85-5.65-5.54-11.37-8.24-17.09-.05-.11-.06-.28-.22-.32-.04,.03-.1,.04-.12,.08-.76,1.59-1.6,3.14-2.29,4.76-.58,1.06-1.13,2.13-1.58,3.24Zm68.36,52.89c.59,.07,1.17,.03,1.87,.03-16.06-33.04-32.21-65.97-48.33-99.03-.17,.34-.28,.55-.38,.76-1.19,2.46-2.37,4.93-3.56,7.39-.44,.91-.92,1.79-1.3,2.73-1.15,2.31-2.33,4.6-3.45,6.92-.48,1-.59,2.08-.31,3.17,.16,.62,.43,1.2,.71,1.77,3.11,6.37,6.24,12.73,9.34,19.11,8.64,17.77,17.4,35.49,25.9,53.33,.43,.89,.91,1.76,1.61,2.48,.74,.76,1.6,1.32,2.71,1.36,1.25,.05,2.5,.06,3.75-.03,.21,0,.42,.03,.63,.03,2.33,0,4.67-.02,7-.02,1.27,0,2.54,0,3.82,0ZM66.38,.4c-.22,.23-.3,.48-.41,.71-1.93,4.06-3.86,8.13-5.8,12.19-.88,1.85-1.82,3.67-2.71,5.52-.64,1.34-.57,2.66,.1,4.01,2.75,5.58,5.48,11.17,8.21,16.76,4.88,9.99,9.76,19.98,14.64,29.98,6.64,13.59,13.28,27.18,19.9,40.79,3.66,7.52,7.4,15.01,10.94,22.58,.38,.81,.8,1.61,1.37,2.31,.92,1.13,2.04,1.88,3.58,1.79,.4-.02,.8,0,1.2,0,3.96-.07,7.92-.07,11.89-.03,1.05,0,2.11,0,3.26,0C110.47,91.43,88.43,45.93,66.38,.4Z"/><path class="cls-15" d="M66.38,.4c22.06,45.54,44.1,91.03,66.17,136.61-1.15,0-2.2,0-3.26,0-3.96-.04-7.92-.04-11.89,.03-.4,0-.8-.01-1.2,0-1.54,.08-2.66-.67-3.58-1.79-.57-.7-.99-1.49-1.37-2.31-3.54-7.58-7.28-15.06-10.94-22.58-6.62-13.6-13.26-27.19-19.9-40.79-4.88-9.99-9.76-19.99-14.64-29.98-2.73-5.59-5.46-11.18-8.21-16.76-.66-1.34-.74-2.67-.1-4.01,.88-1.85,1.82-3.67,2.71-5.52,1.94-4.06,3.87-8.13,5.8-12.19,.11-.23,.18-.48,.41-.71Z"/><path class="cls-13" d="M82.99,136.98c-1.25,.08-2.5,.08-3.75,.03-1.11-.05-1.96-.6-2.71-1.36-.7-.72-1.18-1.59-1.61-2.48-8.5-17.84-17.26-35.56-25.9-53.33-3.1-6.38-6.22-12.74-9.34-19.11-.28-.57-.55-1.15-.71-1.77-.29-1.1-.18-2.17,.31-3.17,1.12-2.32,2.3-4.62,3.45-6.92,.22,0,.32,.16,.42,.33,.25,.45,.52,.89,.78,1.34,.93,1.6,1.87,3.21,2.79,4.82,.8,1.38,1.59,2.77,2.38,4.16,.82,1.42,1.64,2.85,2.47,4.27,.8,1.38,1.6,2.77,2.4,4.15,.93,1.61,1.86,3.21,2.79,4.81,.82,1.42,1.65,2.85,2.47,4.27,.8,1.38,1.59,2.77,2.38,4.16,.8,1.38,1.59,2.77,2.4,4.15,.74,1.28,1.49,2.55,2.24,3.83,.82,1.42,1.65,2.85,2.47,4.27,.8,1.38,1.59,2.77,2.38,4.16,.8,1.38,1.6,2.77,2.4,4.15,.93,1.61,1.87,3.21,2.8,4.81,.82,1.42,1.64,2.85,2.46,4.27,.79,1.36,1.57,2.73,2.36,4.09,.8,1.39,1.58,2.78,2.38,4.16,.93,1.61,1.88,3.2,2.81,4.81,1,1.73,1.97,3.47,2.97,5.2,1.3,2.26,2.63,4.5,3.93,6.76,.18,.32,.42,.64,.39,1.04-3.29,0-6.57,0-9.86,.01-.25,0-.52-.08-.75,.1Z"/><path class="cls-14" d="M93.6,136.87c.03-.41-.21-.72-.39-1.04-1.3-2.26-2.62-4.51-3.93-6.76-1-1.73-1.97-3.47-2.97-5.2-.93-1.61-1.88-3.2-2.81-4.81-.8-1.38-1.59-2.77-2.38-4.16-.78-1.36-1.57-2.73-2.36-4.09-.82-1.42-1.64-2.85-2.46-4.27-.93-1.61-1.87-3.21-2.8-4.81-.8-1.38-1.6-2.76-2.4-4.15-.8-1.38-1.59-2.77-2.38-4.16-.82-1.42-1.64-2.85-2.47-4.27-.74-1.28-1.49-2.55-2.24-3.83-.8-1.38-1.6-2.76-2.4-4.15-.8-1.38-1.59-2.77-2.38-4.16-.82-1.42-1.64-2.85-2.47-4.27-.93-1.61-1.86-3.21-2.79-4.81-.8-1.38-1.6-2.76-2.4-4.15-.82-1.42-1.65-2.85-2.47-4.27-.8-1.38-1.58-2.77-2.38-4.16-.93-1.61-1.86-3.21-2.79-4.82-.26-.45-.53-.89-.78-1.34-.1-.17-.2-.32-.42-.33,.38-.93,.86-1.82,1.3-2.73,1.19-2.46,2.37-4.92,3.56-7.39,.1-.21,.21-.42,.38-.76,16.12,33.06,32.27,65.99,48.33,99.03-.69,0-1.28,.04-1.87-.03-.26-.2-.56-.06-.84-.11Z"/><path class="cls-9" d="M5.71,125.7c.5-1.24,1.15-2.4,1.72-3.61,.68-1.43,1.38-2.86,2.07-4.29,.08-.16,.13-.35,.27-.47,.23,.1,.36,.29,.48,.49,.41,.71,.85,1.4,1.26,2.12,1.32,2.3,2.63,4.6,3.96,6.9,1.4,2.44,2.81,4.88,4.23,7.31,.17,.28,.26,.68,.69,.73-.89,1.26-2.06,2.01-3.63,2.08-1.52,.06-3.04,.07-4.57-.03,.03-.3-.09-.54-.24-.79-.93-1.57-1.86-3.15-2.77-4.73-1-1.73-1.97-3.47-2.97-5.19-.12-.21-.21-.49-.52-.52Z"/><path class="cls-8" d="M20.41,134.89c-.44-.04-.53-.44-.69-.73-1.42-2.43-2.83-4.87-4.23-7.31-1.32-2.3-2.63-4.61-3.96-6.9-.41-.71-.85-1.41-1.26-2.12-.12-.21-.26-.39-.48-.49,.79-1.63,1.57-3.26,2.37-4.88,.34-.69,.59-1.41,1.03-2.05,.33,.02,.48,.25,.63,.5,.61,1.05,1.24,2.09,1.85,3.15,1.18,2.05,2.32,4.12,3.52,6.16,1.43,2.45,2.87,4.89,4.24,7.37,.12,.22,.23,.41,.52,.37-.89,1.94-1.78,3.87-2.75,5.77-.21,.41-.43,.83-.78,1.16Z"/><path class="cls-11" d="M17.86,100.9c.5-1.27,1.17-2.46,1.76-3.69,.29-.61,.55-1.25,.93-1.81,.2,.5,.44,.98,.71,1.45,1.53,2.63,3.03,5.29,4.55,7.93,1.53,2.66,3.08,5.31,4.62,7.97,.16,.27,.34,.5,.61,.66-.51,1.28-1.19,2.48-1.77,3.72-.27,.57-.57,1.12-.85,1.68-.44-.08-.55-.48-.73-.79-.83-1.42-1.64-2.85-2.46-4.27-.93-1.61-1.86-3.21-2.79-4.81-.82-1.42-1.67-2.83-2.46-4.27-.69-1.25-1.49-2.45-2.11-3.74Z"/><path class="cls-10" d="M23.94,127.96c-.29,.04-.4-.16-.52-.37-1.37-2.48-2.81-4.92-4.24-7.37-1.2-2.04-2.34-4.11-3.52-6.16-.61-1.06-1.24-2.1-1.85-3.15-.15-.25-.3-.48-.63-.5,.48-1.17,1.11-2.27,1.65-3.41,.29-.61,.54-1.25,.93-1.81,.3-.03,.48,.1,.61,.37,.12,.25,.27,.49,.41,.74,.79,1.38,1.59,2.77,2.38,4.15,.79,1.38,1.59,2.76,2.39,4.14,.76,1.32,1.53,2.64,2.3,3.95,.85,1.46,1.7,2.92,2.54,4.38-.77,1.45-1.45,2.94-2.12,4.44-.1,.21-.22,.41-.33,.62Z"/><path class="cls-12" d="M41.36,123.43c.46-1.16,1.07-2.24,1.58-3.37,.1-.23,.27-.28,.51-.28,2.6,.03,5.21-.04,7.81,.04-.22,.14-.46,.07-.69,.07-1.41,0-2.83,0-4.24,0-.17,0-.38-.08-.53,.19,.13,.27,.26,.57,.43,.85,.81,1.4,1.64,2.8,2.45,4.2,.94,1.63,1.87,3.26,2.81,4.89,.99,1.71,2,3.4,2.96,5.12,.28,.51,.69,.96,.8,1.56-2.03,.03-4.06,.06-6.09,0,.03-.28-.1-.5-.23-.73-.41-.74-.82-1.47-1.25-2.2-.93-1.6-1.88-3.19-2.8-4.79-.98-1.7-1.95-3.42-2.93-5.13-.13-.23-.29-.43-.59-.45Z"/><path class="cls-2" d="M55.24,136.71c-.12-.6-.52-1.05-.8-1.56-.96-1.72-1.98-3.41-2.96-5.12-.94-1.63-1.87-3.26-2.81-4.89-.81-1.4-1.64-2.8-2.45-4.2-.16-.28-.29-.58-.43-.85,.15-.27,.36-.19,.53-.19,1.41,0,2.83,0,4.24,0,.23,0,.47,.06,.69-.07,.49-.17,.66,.16,.84,.52,2.12,4.25,4.26,8.49,6.38,12.73,.5,.99,.99,1.97,1.48,2.96,.09,.19,.23,.36,.23,.68-.82,.04-1.65,.01-2.48,.02-.82,0-1.65,0-2.47-.01Z"/><path class="cls-5" d="M34.87,105.35c-.63,1.42-1.18,2.88-1.97,4.23-.2-.09-.34-.24-.45-.43-.78-1.36-1.55-2.73-2.33-4.09-.77-1.34-1.54-2.68-2.32-4.02-.8-1.38-1.6-2.76-2.4-4.13-.91-1.56-1.82-3.12-2.73-4.67-.12-.2-.26-.39-.28-.64,.6-1.4,1.29-2.76,2-4.1,.46,.08,.4,.54,.56,.82,.81,1.34,1.58,2.72,2.37,4.08,.82,1.42,1.64,2.84,2.46,4.27,.92,1.58,1.84,3.16,2.75,4.75,.76,1.32,1.49,2.66,2.32,3.94Z"/><path class="cls-3" d="M26.39,122.91c-.85-1.46-1.7-2.92-2.54-4.38-.77-1.32-1.53-2.63-2.3-3.95-.8-1.38-1.59-2.76-2.39-4.14-.79-1.38-1.59-2.77-2.38-4.15-.14-.24-.3-.48-.41-.74-.12-.27-.31-.4-.61-.37,.63-1.46,1.34-2.89,2.1-4.29,.62,1.29,1.42,2.49,2.11,3.74,.79,1.44,1.64,2.85,2.46,4.27,.93,1.6,1.86,3.21,2.79,4.81,.82,1.42,1.64,2.85,2.46,4.27,.18,.31,.28,.71,.73,.79-.63,1.4-1.28,2.78-2.02,4.12Z"/><path class="cls-6" d="M22.4,91.6c.02,.24,.16,.43,.28,.64,.91,1.56,1.82,3.11,2.73,4.67,.8,1.38,1.6,2.76,2.4,4.13,.77,1.34,1.55,2.68,2.32,4.02,.78,1.36,1.56,2.73,2.33,4.09,.11,.19,.25,.34,.45,.43-.57,1.3-1.17,2.57-1.87,3.81-.27-.16-.46-.39-.61-.66-1.53-2.66-3.08-5.31-4.62-7.97-1.52-2.64-3.02-5.29-4.55-7.93-.27-.47-.51-.95-.71-1.45,.55-1.3,1.17-2.56,1.85-3.8Z"/><path class="cls-16" d="M27.66,80.85c.69-1.62,1.53-3.17,2.29-4.76,.02-.03,.08-.05,.12-.08,.16,.04,.17,.21,.22,.32,2.7,5.72,5.38,11.44,8.24,17.09,.85,1.67,.83,3.34-.12,4.98-.36,0-.46-.3-.6-.53-.94-1.6-1.87-3.2-2.8-4.81-.8-1.38-1.59-2.77-2.38-4.16-.83-1.45-1.66-2.89-2.5-4.33-.66-1.14-1.33-2.27-1.98-3.41-.12-.21-.25-.34-.5-.31Z"/><path class="cls-7" d="M5.71,125.7c.32,.03,.41,.31,.52,.52,1,1.72,1.97,3.46,2.97,5.19,.91,1.58,1.84,3.16,2.77,4.73,.15,.25,.27,.49,.24,.79-.47,.1-.94,.01-1.41,.02-3.29,.02-6.59,.04-9.88,.06-.23,0-.46,.06-.69-.04-.04-.21,.1-.36,.18-.52,1.72-3.53,3.45-7.05,5.17-10.57,.03-.06,.08-.11,.13-.17Z"/><path class="cls-4" d="M34.87,105.35c-.83-1.28-1.56-2.62-2.32-3.94-.91-1.59-1.84-3.17-2.75-4.75-.82-1.42-1.64-2.84-2.46-4.27-.79-1.36-1.55-2.73-2.37-4.08-.17-.28-.1-.74-.56-.82,.49-1.17,1.05-2.3,1.68-3.41,.17,.2,.36,.37,.49,.59,.6,1.01,1.17,2.03,1.76,3.05,.79,1.38,1.57,2.77,2.37,4.15,.93,1.6,1.87,3.19,2.8,4.79,1.04,1.78,2.07,3.57,3.11,5.35-.51,1.14-.94,2.33-1.74,3.33Z"/><path class="cls-2" d="M36.61,102.03c-1.03-1.78-2.07-3.57-3.11-5.35-.93-1.6-1.88-3.19-2.8-4.79-.8-1.38-1.58-2.77-2.37-4.15-.58-1.02-1.16-2.04-1.76-3.05-.13-.22-.32-.4-.49-.59,.45-1.12,1-2.19,1.58-3.24,.25-.03,.38,.1,.5,.31,.65,1.14,1.32,2.27,1.98,3.41,.84,1.44,1.67,2.89,2.5,4.33,.8,1.38,1.58,2.77,2.38,4.16,.93,1.61,1.85,3.21,2.8,4.81,.13,.23,.23,.54,.6,.53-.54,1.24-1.12,2.46-1.8,3.63Z"/><path class="cls-6" d="M41.36,123.43c.3,.02,.45,.21,.59,.45,.97,1.71,1.94,3.42,2.93,5.13,.93,1.6,1.87,3.19,2.8,4.79,.42,.73,.84,1.46,1.25,2.2,.13,.22,.26,.45,.23,.73-1.93,.04-3.87,.07-5.8,0-.09-.47-.35-.87-.58-1.28-1.12-1.95-2.28-3.88-3.39-5.84-.18-.32-.54-.54-.57-.95,.52-1.28,1.18-2.49,1.77-3.74,.24-.5,.44-1.03,.77-1.49Z"/><path class="cls-11" d="M38.82,128.65c.03,.41,.38,.63,.57,.95,1.11,1.96,2.27,3.89,3.39,5.84,.23,.4,.49,.8,.58,1.28-.61,.02-1.22,.06-1.84,.07-1.96,.02-3.91,.02-5.87,.03-.23,0-.46,0-.66,0-.13-.17-.05-.27,0-.38,1.23-2.54,2.47-5.09,3.71-7.63,.03-.06,.08-.11,.13-.16Z"/><path class="cls-15" d="M93.6,136.87c.28,.05,.58-.09,.84,.11-1.27,0-2.54,0-3.82,0-2.33,0-4.67,.02-7,.02-.21,0-.42-.02-.63-.03,.23-.18,.5-.1,.75-.1,3.29,0,6.57,0,9.86-.01Z"/></g></svg>